<?xml version="1.0" standalone="no"?>
<!DOCTYPE svg PUBLIC "-//W3C//DTD SVG 20010904//EN"
 "http://www.w3.org/TR/2001/REC-SVG-20010904/DTD/svg10.dtd">
<svg version="1.0" xmlns="http://www.w3.org/2000/svg"
 width="64.000000pt" height="64.000000pt" viewBox="0 0 64.000000 64.000000"
 preserveAspectRatio="xMidYMid meet">

<g transform="translate(0.000000,64.000000) scale(0.100000,-0.100000)"
fill="#000000" stroke="none">
<path d="M199 603 c-5 -16 -11 -32 -13 -38 -2 -5 -42 -23 -90 -39 -98 -33
-104 -44 -55 -100 27 -31 36 -35 87 -38 l57 -3 -3 -55 c-2 -30 -11 -109 -20
-175 -16 -112 -19 -120 -40 -123 -45 -7 -16 -27 39 -27 47 0 55 3 66 25 9 19
22 26 55 30 40 5 43 7 48 40 3 22 11 35 20 35 11 0 14 -10 11 -45 -3 -52 -12
-60 -64 -60 -58 0 -42 -24 19 -28 89 -6 154 7 181 36 22 23 24 34 21 79 -5 62
-43 128 -133 234 -35 40 -61 79 -58 86 7 18 -35 137 -58 167 -27 34 -57 34
-70 -1z"/>
<path d="M578 72 c-7 -11 -23 -24 -35 -31 -29 -15 -30 -31 -3 -31 24 0 70 42
70 65 0 21 -16 19 -32 -3z"/>
</g>
</svg>
